<?xml version="1.0" encoding="UTF-8"?>
<svg width="16px" height="15px" viewBox="0 0 16 15" version="1.1" xmlns="http://www.w3.org/2000/svg" xmlns:xlink="http://www.w3.org/1999/xlink">
    <!-- Generator: Sketch 50.2 (55047) - http://www.bohemiancoding.com/sketch -->
    <title>comment-icon</title>
    <desc>Created with Sketch.</desc>
    <defs></defs>
    <g id="Page-1" stroke="none" stroke-width="1" fill="none" fill-rule="evenodd">
        <g id="Artboard-Copy-2" transform="translate(-193.000000, -769.000000)" fill="#5B6979" fill-rule="nonzero">
            <g id="Group-9-Copy" transform="translate(12.000000, 473.000000)">
                <path d="M183.461422,296 C182.110524,296 181,297.10812 181,298.461422 L181,304.614975 C181,305.965873 182.110524,307.076397 183.461422,307.076397 L184.884431,307.076397 L185.961303,309.768577 C186.050241,310.00895 186.280999,310.17 186.538198,310.17 C186.795398,310.17 187.026156,310.00895 187.115094,309.768577 L188.191966,307.076397 L194.537818,307.076397 C195.888716,307.076397 196.99924,305.965873 196.99924,304.614975 L196.99924,298.461422 C196.99924,297.10812 195.888716,296 194.537818,296 L183.461422,296 Z M183.461422,297.230711 L194.537818,297.230711 C195.225286,297.230711 195.768529,297.773954 195.768529,298.461422 L195.768529,304.614975 C195.768529,305.300039 195.222882,305.845686 194.537818,305.845686 L187.768909,305.845686 C187.516518,305.843283 187.285759,305.994718 187.192014,306.230283 L186.538198,307.864821 L185.884383,306.230283 C185.790638,305.994718 185.559879,305.843283 185.307488,305.845686 L183.461422,305.845686 C182.776358,305.845686 182.230711,305.300039 182.230711,304.614975 L182.230711,298.461422 C182.230711,297.773954 182.773954,297.230711 183.461422,297.230711 Z" id="comment-icon"></path>
            </g>
        </g>
    </g>
</svg>