<?xml version="1.0" encoding="UTF-8"?>
<svg width="15px" height="15px" viewBox="0 0 15 15" version="1.1" xmlns="http://www.w3.org/2000/svg" xmlns:xlink="http://www.w3.org/1999/xlink">
    <!-- Generator: Sketch 50.2 (55047) - http://www.bohemiancoding.com/sketch -->
    <title>edit-icon</title>
    <desc>Created with Sketch.</desc>
    <defs></defs>
    <g id="Page-1" stroke="none" stroke-width="1" fill="none" fill-rule="evenodd">
        <g id="Artboard-Copy-2" transform="translate(-94.000000, -767.000000)" fill="#4A90E2" fill-rule="nonzero">
            <g id="Group-9-Copy" transform="translate(12.000000, 473.000000)">
                <path d="M93.6989638,294.000031 C93.3514513,293.997745 93.0107977,294.121203 92.7478769,294.384124 L92.1625926,294.987698 L96.0218107,298.865207 L96.607095,298.261632 C97.1352227,297.733504 97.139795,296.876155 96.607095,296.341168 L94.6683409,294.402414 C94.4008478,294.134921 94.0464763,294.002317 93.6989638,294.000031 Z M91.5041478,295.518112 L90.5896412,296.396039 L94.6134705,300.419868 L95.5462673,299.560232 L91.5041478,295.518112 Z M90.0043569,297.036193 L83.6759708,303.309709 C83.5296497,303.385156 83.4244818,303.517759 83.3833287,303.675512 L82.0298588,308.266335 C81.9681297,308.467527 82.0229999,308.689294 82.1716076,308.837902 C82.3202148,308.986509 82.5419826,309.04138 82.743174,308.97965 L87.3339975,307.62618 C87.5466201,307.594173 87.7226631,307.445565 87.7912508,307.242088 L94.0281862,301.060023 L93.1685499,300.200386 L86.7670033,306.620223 L84.1880945,307.370119 L83.6393905,306.821415 L84.4258663,304.132765 L90.7725425,297.804379 L90.0043569,297.036193 Z M91.394407,298.444534 L84.9745703,304.88266 L85.9073671,305.083852 L86.035398,305.943488 L92.4735249,299.523651 L91.394407,298.444534 Z" id="edit-icon"></path>
            </g>
        </g>
    </g>
</svg>