<svg xmlns="http://www.w3.org/2000/svg" width="13" height="13" viewBox="0 0 13 13">
  <g fill="none" fill-rule="evenodd" transform="translate(-681 -16)">
    <g transform="translate(509 9)">
      <path fill="#009EFA" fill-rule="nonzero" d="M181,12.5000003 C181,14.4296876 179.429688,16.0000004 177.5,16.0000004 C175.570313,16.0000004 174,14.4296876 174,12.5000003 C174,10.5703126 175.570313,9.00000029 177.5,9.00000029 C179.429688,9.00000029 181,10.5703126 181,12.5000003 Z M185,19.0000003 C185,18.7343754 184.890625,18.4765629 184.710938,18.296875 L182.03125,15.6171876 C182.664063,14.703125 183,13.6093753 183,12.5000003 C183,9.46093761 180.539063,7 177.5,7 C174.460938,7 172,9.46093761 172,12.5000003 C172,15.5390626 174.460938,18.0000002 177.5,18.0000002 C178.609375,18.0000002 179.703125,17.6640626 180.617188,17.0312503 L183.296875,19.7031252 C183.476562,19.8906251 183.734375,20 184,20 C184.546875,20 185,19.5468751 185,19.0000003 Z"/>
    </g>
  </g>
</svg>
